# xmcd
# 
# Track frame offsets:
#     183
#     18138
#     35855
# 
# Disc length: 751
# 
# Revision: 5
# Processed by: cddbd v1.5.2PL0 Copyright (c) Steve Scherf et al.
# Submitted via: fre:ac v1.0.31
# 
DISCID=1c02ed03
DTITLE=Bernie Lyon - The Love Of A Woman
DYEAR=1993
DGENRE=Blues
TTITLE0=The Love Of A Woman [Radio Edit]
TTITLE1=You Better Not
TTITLE2=The Love Of A Woman [Instrumental]
EXTD=
EXTT0=
EXTT1=
EXTT2=
PLAYORDER=
